<?xml version="1.0" encoding="utf-8"?>
<svg version="1.2" baseProfile="tiny-ps" id="Layer_1" xmlns="http://www.w3.org/2000/svg" xmlns:xlink="http://www.w3.org/1999/xlink" viewBox="0 0 714.87 714.87" xml:space="preserve">
<title>Subcold</title>
<g>
	<path fill="#283582" d="M76.54,404.99l-8.51,10.9c9.14,4.79,19.53,7.51,30.56,7.51c19.58,0,37.16-8.54,49.24-22.09l-9.9-9.21
		c-9.63,10.89-23.67,17.8-39.35,17.8C90.7,409.88,83.25,408.1,76.54,404.99"/>
	<path fill="#009EE2" d="M115.34,330.57c12.1,12.11,23.65,23.66,35.13,35.14c3.42-22.25-7.11-43.84-26.66-54.44
		c-19.73-10.69-43.71-7.75-60.38,7.06C48.71,331.4,43.76,352.76,47,363.61c9.11-8.52,18.12-16.95,27.31-25.54
		c5.57,5.93,10.95,11.66,16.38,17.45C98.73,347.38,106.58,339.44,115.34,330.57 M155.29,390.62
		c-13.34-13.36-26.64-26.68-40.12-40.18c-19.5,19.54-38.71,38.77-58.2,58.3c-3.25-3.35-6.24-6.43-9.51-9.81
		c11.28-11.16,22.48-22.25,33.94-33.59c-2.66-2.85-5.03-5.38-7.7-8.24c-11.13,10.4-22.14,20.7-33.19,31.03
		c-12.53-21.16-11.95-57.58,15.13-80.84c25.55-21.95,64.24-20.88,88.32,2.09C169.58,333.83,168.73,370.24,155.29,390.62"/>
	<path fill="#283582" d="M661.14,365.28c-0.98,2.4-2.35,4.47-4.1,6.23c-1.76,1.76-3.83,3.16-6.23,4.2c-2.4,1.05-5.01,1.57-7.85,1.57
		h-7.09V338h7.09c2.83,0,5.45,0.52,7.85,1.57c2.39,1.05,4.47,2.45,6.23,4.2c1.75,1.76,3.12,3.83,4.1,6.23
		c0.98,2.4,1.47,4.95,1.47,7.64C662.61,360.34,662.12,362.89,661.14,365.28 M618.47,395.2h26.32c5.2,0,10.07-1.03,14.63-3.09
		c4.56-2.06,8.52-4.82,11.9-8.3c3.37-3.48,6.04-7.47,8-12c1.96-4.52,2.94-9.25,2.94-14.17c0-5.2-1.06-10.09-3.19-14.68
		c-2.13-4.59-4.95-8.57-8.45-11.95c-3.51-3.37-7.51-6.04-12-8c-4.49-1.96-9.1-2.94-13.82-2.94h-26.32c-1.42,0-2.13,0.74-2.13,2.23
		v70.66C616.34,394.46,617.05,395.2,618.47,395.2 M557.32,395.2h45.46c1.42,0,2.13-0.74,2.13-2.23v-13.46
		c0-1.48-0.71-2.23-2.13-2.23h-28.14v-54.97c0-1.48-0.71-2.23-2.13-2.23h-15.18c-0.54,0-1.03,0.19-1.47,0.56
		c-0.44,0.37-0.66,0.93-0.66,1.67v70.66C555.2,394.46,555.91,395.2,557.32,395.2 M468.54,372.77c2.02,4.69,4.77,8.78,8.25,12.25
		c3.48,3.48,7.58,6.23,12.3,8.25s9.75,3.04,15.09,3.04c5.33,0,10.34-1.01,15.03-3.04c4.69-2.02,8.79-4.77,12.3-8.25
		c3.51-3.47,6.28-7.56,8.3-12.25c2.03-4.69,3.04-9.7,3.04-15.03c0-5.4-1.01-10.44-3.04-15.13c-2.03-4.69-4.79-8.79-8.3-12.3
		c-3.51-3.51-7.61-6.28-12.3-8.3c-4.69-2.02-9.7-3.04-15.03-3.04c-5.33,0-10.36,1.01-15.09,3.04c-4.72,2.02-8.82,4.79-12.3,8.3
		c-3.48,3.51-6.23,7.61-8.25,12.3c-2.02,4.69-3.04,9.74-3.04,15.13C465.5,363.07,466.52,368.08,468.54,372.77 M486.46,349.84
		c0.95-2.43,2.26-4.55,3.95-6.38c1.69-1.82,3.71-3.26,6.07-4.3c2.36-1.05,4.92-1.57,7.69-1.57c2.77,0,5.33,0.52,7.69,1.57
		c2.36,1.05,4.39,2.48,6.07,4.3c1.69,1.82,3,3.95,3.95,6.38c0.94,2.43,1.42,5.03,1.42,7.8c0,2.83-0.47,5.47-1.42,7.9
		c-0.95,2.43-2.26,4.54-3.95,6.33c-1.69,1.79-3.71,3.21-6.07,4.25c-2.36,1.05-4.93,1.57-7.69,1.57c-2.77,0-5.33-0.52-7.69-1.57
		c-2.36-1.04-4.39-2.46-6.07-4.25c-1.69-1.79-3-3.9-3.95-6.33c-0.95-2.43-1.42-5.06-1.42-7.9
		C485.04,354.87,485.51,352.27,486.46,349.84 M446.17,376.57c-1.76,0.74-3.71,1.11-5.87,1.11c-2.83,0-5.45-0.52-7.85-1.57
		c-2.4-1.04-4.47-2.48-6.23-4.3c-1.76-1.82-3.12-3.96-4.1-6.43c-0.98-2.46-1.47-5.11-1.47-7.95c0-2.83,0.49-5.47,1.47-7.9
		c0.98-2.43,2.35-4.54,4.1-6.33c1.76-1.79,3.83-3.19,6.23-4.2c2.39-1.01,5.01-1.52,7.85-1.52c2.09,0,3.98,0.29,5.67,0.86
		c1.69,0.57,3.37,1.54,5.06,2.88c0.54,0.47,1.1,0.73,1.67,0.76c0.57,0.03,1.06-0.22,1.47-0.76l8.81-12.65
		c0.2-0.34,0.27-0.77,0.2-1.32c-0.07-0.54-0.37-0.98-0.91-1.32c-2.83-1.96-6.06-3.63-9.67-5.01c-3.61-1.38-7.71-2.08-12.3-2.08
		c-5.33,0-10.36,1-15.08,2.99c-4.72,1.99-8.86,4.74-12.4,8.25c-3.54,3.51-6.33,7.59-8.35,12.25c-2.02,4.66-3.04,9.68-3.04,15.08
		c0,5.33,1.01,10.36,3.04,15.08c2.02,4.73,4.81,8.86,8.35,12.4c3.54,3.54,7.68,6.33,12.4,8.35c4.72,2.02,9.75,3.04,15.08,3.04
		c4.59,0,8.69-0.66,12.3-1.97c3.61-1.32,6.77-2.95,9.46-4.91c0.74-0.54,1.18-1.03,1.32-1.47c0.14-0.44-0.07-1.03-0.61-1.77
		l-8.3-12.15c-0.47-0.67-1.01-0.98-1.62-0.91c-0.61,0.07-1.28,0.37-2.02,0.91C449.47,374.99,447.92,375.83,446.17,376.57
		 M367.3,347.62c-1.42,1.35-3.31,2.02-5.67,2.02h-9.11v-14.68h9.31c2.23,0,4.05,0.73,5.47,2.18c1.42,1.45,2.13,3.19,2.13,5.21
		C369.43,344.51,368.72,346.27,367.3,347.62 M369.94,377.58c-1.48,1.76-3.34,2.63-5.57,2.63h-11.84v-16.91h11.84
		c1.15,0,2.19,0.25,3.14,0.76c0.94,0.51,1.75,1.15,2.43,1.92c0.67,0.78,1.21,1.67,1.62,2.68c0.4,1.01,0.61,2.02,0.61,3.04
		C372.16,373.87,371.42,375.83,369.94,377.58 M335.11,395.2h35.03c2.97,0,5.79-0.61,8.45-1.82c2.67-1.21,5.01-2.85,7.04-4.91
		c2.02-2.06,3.63-4.47,4.81-7.24c1.18-2.77,1.77-5.67,1.77-8.71c0-3.44-0.73-6.7-2.18-9.77c-1.45-3.07-3.36-5.72-5.72-7.95
		c3.04-3.58,4.56-7.9,4.56-12.96c0-3.04-0.58-5.87-1.72-8.5c-1.15-2.63-2.7-4.94-4.66-6.93c-1.96-1.99-4.25-3.54-6.88-4.66
		c-2.63-1.11-5.43-1.67-8.4-1.67h-32.09c-1.49,0-2.23,0.78-2.23,2.33v70.66C332.88,394.49,333.63,395.2,335.11,395.2 M273.56,320.69
		c-0.27-0.41-0.88-0.61-1.82-0.61h-15.39c-0.61,0-1.1,0.22-1.47,0.66c-0.37,0.44-0.56,0.96-0.56,1.57v42.62
		c0,5.81,0.88,10.72,2.63,14.73c1.75,4.02,4.1,7.26,7.04,9.72c2.94,2.47,6.33,4.25,10.17,5.37c3.85,1.11,7.9,1.67,12.15,1.67
		c4.25,0,8.32-0.54,12.2-1.62c3.88-1.08,7.29-2.85,10.23-5.31c2.94-2.46,5.26-5.7,6.99-9.72c1.72-4.02,2.58-8.96,2.58-14.83v-42.62
		c0-0.61-0.22-1.13-0.66-1.57c-0.44-0.44-1.03-0.66-1.77-0.66H301.1c-0.74,0-1.32,0.22-1.72,0.66c-0.4,0.44-0.61,0.96-0.61,1.57
		v42.92c0,2.23-0.34,4.2-1.01,5.92c-0.67,1.72-1.57,3.15-2.68,4.3c-1.11,1.15-2.43,2.02-3.95,2.63c-1.52,0.61-3.12,0.91-4.81,0.91
		c-1.62,0-3.17-0.25-4.66-0.76c-1.49-0.51-2.8-1.32-3.95-2.43c-1.15-1.11-2.06-2.53-2.73-4.25c-0.68-1.72-1.01-3.83-1.01-6.33
		v-42.92C273.97,321.63,273.83,321.09,273.56,320.69 M195.41,369.79c-0.47,0-1.05,0.24-1.72,0.71l-8.81,8.4
		c-0.74,0.74-1.11,1.38-1.11,1.92c0,0.54,0.37,1.21,1.11,2.02c0.07,0.07,0.13,0.12,0.2,0.15c0.07,0.04,0.13,0.12,0.2,0.25l0.2,0.1
		c1.62,1.82,3.47,3.51,5.57,5.06c2.09,1.55,4.34,2.9,6.73,4.05c2.39,1.15,4.88,2.06,7.44,2.73c2.56,0.67,5.16,1.01,7.79,1.01
		c4.12,0,7.96-0.59,11.54-1.77c3.58-1.18,6.68-2.83,9.31-4.96c2.63-2.13,4.71-4.69,6.23-7.69c1.52-3,2.28-6.36,2.28-10.07
		c0-3.51-0.61-6.49-1.82-8.96c-1.21-2.46-2.92-4.59-5.11-6.38c-2.19-1.79-4.81-3.32-7.85-4.61c-3.04-1.28-6.34-2.53-9.92-3.75
		c-3.71-1.22-6.51-2.33-8.4-3.34c-1.89-1.01-2.83-2.46-2.83-4.35c0-1.96,0.81-3.31,2.43-4.05c1.62-0.74,3.54-1.11,5.77-1.11
		c2.16,0,4.2,0.56,6.12,1.67c1.92,1.11,3.56,2.24,4.91,3.39l0.51,0.41c0.47,0.4,0.89,0.74,1.26,1.01c0.37,0.27,0.79,0.4,1.27,0.4
		c0.61,0,1.18-0.27,1.72-0.81l7.79-8.3c0.88-1.01,1.32-1.82,1.32-2.43c0-0.94-0.85-2.13-2.53-3.54c-1.69-1.42-3.68-2.8-5.97-4.15
		c-2.7-1.55-5.48-2.67-8.35-3.34c-2.87-0.67-5.82-1.01-8.86-1.01c-4.05,0-7.73,0.49-11.04,1.47c-3.31,0.98-6.12,2.38-8.45,4.2
		c-2.33,1.82-4.14,4.02-5.42,6.58c-1.28,2.57-1.92,5.43-1.92,8.61c0,5.94,2.01,10.83,6.02,14.68c4.01,3.85,10.11,7.19,18.27,10.02
		c0.94,0.34,2.04,0.73,3.29,1.16c1.25,0.44,2.43,0.98,3.54,1.62c1.11,0.64,2.07,1.37,2.88,2.18s1.21,1.76,1.21,2.83
		c0,1.89-0.62,3.54-1.87,4.96c-1.25,1.42-3.63,2.13-7.14,2.13c-1.82,0-3.59-0.32-5.32-0.96c-1.72-0.64-3.43-1.54-5.11-2.68
		c-1.15-0.81-2.16-1.6-3.04-2.38c-0.88-0.77-1.62-1.4-2.23-1.87C196.65,370.19,195.95,369.79,195.41,369.79"/>
</g>
<g>
	<path fill="#283582" d="M690.05,320.08c0,1.4-0.35,2.7-1.05,3.9c-0.7,1.21-1.65,2.16-2.86,2.85s-2.51,1.04-3.9,1.04
		c-1.39,0-2.69-0.35-3.89-1.04s-2.16-1.64-2.86-2.85c-0.7-1.21-1.05-2.51-1.05-3.9c0-1.39,0.35-2.69,1.05-3.9
		c0.7-1.21,1.65-2.16,2.86-2.86s2.5-1.04,3.89-1.04c1.4,0,2.7,0.35,3.9,1.04s2.16,1.65,2.86,2.86
		C689.7,317.39,690.05,318.69,690.05,320.08z M688.54,320.08c0-1.74-0.61-3.22-1.84-4.45c-1.23-1.23-2.71-1.84-4.45-1.84
		c-1.74,0-3.22,0.61-4.45,1.84c-1.23,1.23-1.84,2.71-1.84,4.45s0.61,3.22,1.84,4.45c1.23,1.23,2.71,1.84,4.45,1.84
		c1.74,0,3.22-0.61,4.45-1.84C687.92,323.3,688.54,321.82,688.54,320.08z M678.71,315.91h3.73c1.06,0,1.82,0.21,2.29,0.64
		c0.47,0.43,0.71,1,0.71,1.71c0,0.56-0.18,1.04-0.54,1.45c-0.36,0.41-0.93,0.7-1.71,0.89c0.32,0.12,0.55,0.25,0.7,0.39
		c0.21,0.19,0.43,0.47,0.66,0.85c0.01,0.03,0.46,0.83,1.35,2.41h-2.45c-0.8-1.59-1.33-2.54-1.6-2.85c-0.27-0.31-0.55-0.46-0.82-0.46
		c-0.06,0-0.15,0.01-0.26,0.03v3.28h-2.07V315.91z M680.78,319.45h0.9c0.6,0,1.02-0.1,1.27-0.29c0.25-0.19,0.37-0.44,0.37-0.75
		c0-0.31-0.12-0.56-0.35-0.75c-0.23-0.19-0.64-0.29-1.2-0.29h-0.98V319.45z"/>
</g>
</svg>
